<?xml version="1.0" encoding="UTF-8" standalone="no"?>
<svg
   xmlns:dc="http://purl.org/dc/elements/1.1/"
   xmlns:cc="http://creativecommons.org/ns#"
   xmlns:rdf="http://www.w3.org/1999/02/22-rdf-syntax-ns#"
   xmlns:svg="http://www.w3.org/2000/svg"
   xmlns="http://www.w3.org/2000/svg"
   xmlns:sodipodi="http://sodipodi.sourceforge.net/DTD/sodipodi-0.dtd"
   xmlns:inkscape="http://www.inkscape.org/namespaces/inkscape"
   version="1.1"
   id="Capa_1"
   x="0px"
   y="0px"
   width="16.000002"
   height="16"
   viewBox="0 0 16.000002 16"
   xml:space="preserve"
   sodipodi:docname="numberedList.svg"
   inkscape:version="1.0.1 (3bc2e813f5, 2020-09-07)"><metadata
   id="metadata304"><rdf:RDF><cc:Work
       rdf:about=""><dc:format>image/svg+xml</dc:format><dc:type
         rdf:resource="http://purl.org/dc/dcmitype/StillImage" /><dc:title></dc:title></cc:Work></rdf:RDF></metadata><defs
   id="defs302" /><sodipodi:namedview
   pagecolor="#ffffff"
   bordercolor="#666666"
   borderopacity="1"
   objecttolerance="10"
   gridtolerance="10"
   guidetolerance="10"
   inkscape:pageopacity="0"
   inkscape:pageshadow="2"
   inkscape:window-width="1024"
   inkscape:window-height="705"
   id="namedview300"
   showgrid="false"
   fit-margin-top="0"
   fit-margin-left="0"
   fit-margin-right="0"
   fit-margin-bottom="0"
   inkscape:zoom="22.047168"
   inkscape:cx="15.507821"
   inkscape:cy="9.5428933"
   inkscape:window-x="1016"
   inkscape:window-y="-8"
   inkscape:window-maximized="1"
   inkscape:current-layer="g265"
   inkscape:document-rotation="0" />
<g
   id="g267"
   transform="matrix(0.03153704,0,0,0.03143085,-0.02699571,0)">
	<g
   id="g265">
		
		<path
   d="m 505.489,73.232 c -1.816,-1.809 -3.952,-2.712 -6.43,-2.712 H 151.886 c -2.474,0 -4.611,0.903 -6.423,2.712 -1.805,1.809 -2.708,3.949 -2.708,6.424 v 54.817 c 0,2.475 0.9,4.615 2.708,6.424 1.812,1.807 3.949,2.712 6.423,2.712 h 347.176 c 2.478,0 4.617,-0.905 6.427,-2.712 1.808,-1.809 2.707,-3.949 2.707,-6.424 V 79.656 c 0.004,-2.474 -0.899,-4.615 -2.707,-6.424 z"
   id="path255" />
		
		
		<path
   d="M 499.06,362.876 H 151.886 c -2.663,0 -4.853,0.858 -6.563,2.569 -1.713,1.712 -2.568,3.901 -2.568,6.564 v 54.819 c 0,2.475 0.9,4.616 2.708,6.423 1.812,1.808 3.949,2.711 6.423,2.711 h 347.176 c 2.478,0 4.617,-0.896 6.427,-2.711 1.808,-1.807 2.707,-3.948 2.707,-6.423 V 372.01 c 0,-2.471 -0.906,-4.613 -2.707,-6.42 -1.813,-1.808 -3.952,-2.714 -6.429,-2.714 z"
   id="path261" />
		<path
   d="M 499.06,216.698 H 151.886 c -2.663,0 -4.853,0.855 -6.563,2.568 -1.713,1.713 -2.568,3.903 -2.568,6.567 v 54.818 c 0,2.475 0.9,4.613 2.708,6.424 1.812,1.81 3.949,2.714 6.423,2.714 h 347.176 c 2.478,0 4.617,-0.904 6.427,-2.714 1.808,-1.811 2.707,-3.949 2.707,-6.424 v -54.818 c 0,-2.474 -0.906,-4.615 -2.707,-6.423 -1.813,-1.808 -3.952,-2.712 -6.429,-2.712 z"
   id="path263" />
	<ellipse
   style="fill:#000000;fill-rule:evenodd;stroke-width:46.2481"
   id="path66"
   cx="61.425549"
   cy="102.45884"
   rx="51.056923"
   ry="62.052532" /><ellipse
   style="fill:#000000;fill-rule:evenodd;stroke-width:46.2481"
   id="path66-5"
   cx="61.425549"
   cy="255.42554"
   rx="51.056923"
   ry="62.052532" /><ellipse
   style="fill:#000000;fill-rule:evenodd;stroke-width:46.2481"
   id="path66-5-6"
   cx="61.425549"
   cy="406.94919"
   rx="51.056923"
   ry="62.052532" /></g>
</g>
<g
   id="g269"
   transform="translate(-246.52601,-246.527)">
</g>
<g
   id="g271"
   transform="translate(-246.52601,-246.527)">
</g>
<g
   id="g273"
   transform="translate(-246.52601,-246.527)">
</g>
<g
   id="g275"
   transform="translate(-246.52601,-246.527)">
</g>
<g
   id="g277"
   transform="translate(-246.52601,-246.527)">
</g>
<g
   id="g279"
   transform="translate(-246.52601,-246.527)">
</g>
<g
   id="g281"
   transform="translate(-246.52601,-246.527)">
</g>
<g
   id="g283"
   transform="translate(-246.52601,-246.527)">
</g>
<g
   id="g285"
   transform="translate(-246.52601,-246.527)">
</g>
<g
   id="g287"
   transform="translate(-246.52601,-246.527)">
</g>
<g
   id="g289"
   transform="translate(-246.52601,-246.527)">
</g>
<g
   id="g291"
   transform="translate(-246.52601,-246.527)">
</g>
<g
   id="g293"
   transform="translate(-246.52601,-246.527)">
</g>
<g
   id="g295"
   transform="translate(-246.52601,-246.527)">
</g>
<g
   id="g297"
   transform="translate(-246.52601,-246.527)">
</g>
</svg>
